<svg id="Layer_1" data-name="Layer 1" xmlns="http://www.w3.org/2000/svg" viewBox="0 0 283 248"><defs><style>.cls-1{fill:#3e4c70;}.cls-2{fill:#fff;}.cls-3{fill:#158aff;}.cls-4{fill:#d62027;}</style></defs><title>zbx</title><path class="cls-1" d="M74.91,145.57H45.82a7,7,0,0,1-7-7V135.8a7,7,0,0,1,7-7H74.91a7,7,0,0,1,7,7v2.78A7,7,0,0,1,74.91,145.57ZM45.82,130.79a5,5,0,0,0-5,5v2.78a5,5,0,0,0,5,5H74.91a5,5,0,0,0,5-5V135.8a5,5,0,0,0-5-5Z"/><rect class="cls-1" x="45.37" y="134.28" width="16.02" height="1.98"/><circle class="cls-2" cx="72.25" cy="137.34" r="3.1"/><path class="cls-3" d="M72.25,136.24a1.1,1.1,0,1,1-1.1,1.1,1.1,1.1,0,0,1,1.1-1.1m0-2a3.1,3.1,0,1,0,3.1,3.1,3.1,3.1,0,0,0-3.1-3.1Z"/><path class="cls-1" d="M74.91,125.57H45.82a7,7,0,0,1-7-7V115.8a7,7,0,0,1,7-7H74.91a7,7,0,0,1,7,7v2.78A7,7,0,0,1,74.91,125.57ZM45.82,110.79a5,5,0,0,0-5,5v2.78a5,5,0,0,0,5,5H74.91a5,5,0,0,0,5-5V115.8a5,5,0,0,0-5-5Z"/><rect class="cls-1" x="45.37" y="114.28" width="16.02" height="1.98"/><circle class="cls-2" cx="72.25" cy="117.34" r="3.1"/><path class="cls-3" d="M72.25,116.24a1.1,1.1,0,1,1-1.1,1.1,1.1,1.1,0,0,1,1.1-1.1m0-2a3.1,3.1,0,1,0,3.1,3.1,3.1,3.1,0,0,0-3.1-3.1Z"/><path class="cls-1" d="M74.91,164.18H45.82a7,7,0,0,1-7-7v-2.78a7,7,0,0,1,7-7H74.91a7,7,0,0,1,7,7v2.78A7,7,0,0,1,74.91,164.18ZM45.82,149.4a5,5,0,0,0-5,5v2.78a5,5,0,0,0,5,5H74.91a5,5,0,0,0,5-5v-2.78a5,5,0,0,0-5-5Z"/><rect class="cls-1" x="45.37" y="152.89" width="16.02" height="1.98"/><circle class="cls-2" cx="72.25" cy="155.95" r="3.1"/><path class="cls-3" d="M72.25,154.85a1.1,1.1,0,1,1-1.1,1.1,1.1,1.1,0,0,1,1.1-1.1m0-2a3.1,3.1,0,1,0,3.1,3.1,3.1,3.1,0,0,0-3.1-3.1Z"/><path class="cls-1" d="M254.91,145.57H225.82a7,7,0,0,1-7-7V135.8a7,7,0,0,1,7-7h29.09a7,7,0,0,1,7,7v2.78A7,7,0,0,1,254.91,145.57Zm-29.09-14.78a5,5,0,0,0-5,5v2.78a5,5,0,0,0,5,5h29.09a5,5,0,0,0,5-5V135.8a5,5,0,0,0-5-5Z"/><rect class="cls-1" x="225.37" y="134.28" width="16.02" height="1.98"/><circle class="cls-2" cx="252.25" cy="137.34" r="2.1"/><path class="cls-3" d="M252.25,136.24a1.1,1.1,0,1,1-1.1,1.1,1.1,1.1,0,0,1,1.1-1.1m0-2a3.1,3.1,0,1,0,3.1,3.1,3.1,3.1,0,0,0-3.1-3.1Z"/><path class="cls-1" d="M254.91,125.57H225.82a7,7,0,0,1-7-7V115.8a7,7,0,0,1,7-7h29.09a7,7,0,0,1,7,7v2.78A7,7,0,0,1,254.91,125.57Zm-29.09-14.78a5,5,0,0,0-5,5v2.78a5,5,0,0,0,5,5h29.09a5,5,0,0,0,5-5V115.8a5,5,0,0,0-5-5Z"/><rect class="cls-1" x="225.37" y="114.28" width="16.02" height="1.98"/><circle class="cls-2" cx="252.25" cy="117.34" r="2.1"/><path class="cls-3" d="M252.25,116.24a1.1,1.1,0,1,1-1.1,1.1,1.1,1.1,0,0,1,1.1-1.1m0-2a3.1,3.1,0,1,0,3.1,3.1,3.1,3.1,0,0,0-3.1-3.1Z"/><path class="cls-1" d="M254.91,164.18H225.82a7,7,0,0,1-7-7v-2.78a7,7,0,0,1,7-7h29.09a7,7,0,0,1,7,7v2.78A7,7,0,0,1,254.91,164.18ZM225.82,149.4a5,5,0,0,0-5,5v2.78a5,5,0,0,0,5,5h29.09a5,5,0,0,0,5-5v-2.78a5,5,0,0,0-5-5Z"/><rect class="cls-1" x="225.37" y="152.89" width="16.02" height="1.98"/><circle class="cls-2" cx="252.25" cy="155.95" r="2.1"/><path class="cls-3" d="M252.25,154.85a1.1,1.1,0,1,1-1.1,1.1,1.1,1.1,0,0,1,1.1-1.1m0-2a3.1,3.1,0,1,0,3.1,3.1,3.1,3.1,0,0,0-3.1-3.1Z"/><path class="cls-1" d="M162.91,76.57H133.82a7,7,0,0,1-7-7V66.8a7,7,0,0,1,7-7h29.09a7,7,0,0,1,7,7v2.78A7,7,0,0,1,162.91,76.57ZM133.82,61.79a5,5,0,0,0-5,5v2.78a5,5,0,0,0,5,5h29.09a5,5,0,0,0,5-5V66.8a5,5,0,0,0-5-5Z"/><rect class="cls-1" x="133.37" y="65.28" width="16.02" height="1.98"/><circle class="cls-2" cx="160.25" cy="68.34" r="3.1"/><path class="cls-3" d="M160.25,67.24a1.1,1.1,0,1,1-1.1,1.1,1.1,1.1,0,0,1,1.1-1.1m0-2a3.1,3.1,0,1,0,3.1,3.1,3.1,3.1,0,0,0-3.1-3.1Z"/><path class="cls-1" d="M162.91,56.57H133.82a7,7,0,0,1-7-7V46.8a7,7,0,0,1,7-7h29.09a7,7,0,0,1,7,7v2.78A7,7,0,0,1,162.91,56.57ZM133.82,41.79a5,5,0,0,0-5,5v2.78a5,5,0,0,0,5,5h29.09a5,5,0,0,0,5-5V46.8a5,5,0,0,0-5-5Z"/><rect class="cls-1" x="133.37" y="45.28" width="16.02" height="1.98"/><circle class="cls-2" cx="160.25" cy="48.34" r="3.1"/><path class="cls-3" d="M160.25,47.24a1.1,1.1,0,1,1-1.1,1.1,1.1,1.1,0,0,1,1.1-1.1m0-2a3.1,3.1,0,1,0,3.1,3.1,3.1,3.1,0,0,0-3.1-3.1Z"/><path class="cls-1" d="M162.91,95.18H133.82a7,7,0,0,1-7-7V85.41a7,7,0,0,1,7-7h29.09a7,7,0,0,1,7,7v2.78A7,7,0,0,1,162.91,95.18ZM133.82,80.4a5,5,0,0,0-5,5v2.78a5,5,0,0,0,5,5h29.09a5,5,0,0,0,5-5V85.41a5,5,0,0,0-5-5Z"/><rect class="cls-1" x="133.37" y="83.89" width="16.02" height="1.98"/><circle class="cls-2" cx="160.25" cy="86.95" r="3.1"/><path class="cls-3" d="M160.25,85.85a1.1,1.1,0,1,1-1.1,1.1,1.1,1.1,0,0,1,1.1-1.1m0-2a3.1,3.1,0,1,0,3.1,3.1,3.1,3.1,0,0,0-3.1-3.1Z"/><circle class="cls-2" cx="238.5" cy="185.63" r="10.63"/><path class="cls-3" d="M238.5,177a8.63,8.63,0,1,1-8.63,8.63A8.64,8.64,0,0,1,238.5,177m0-2a10.63,10.63,0,1,0,10.63,10.63A10.63,10.63,0,0,0,238.5,175Z"/><circle class="cls-2" cx="60.5" cy="185.63" r="10.63"/><path class="cls-3" d="M60.5,177a8.63,8.63,0,1,1-8.63,8.63A8.64,8.64,0,0,1,60.5,177m0-2a10.63,10.63,0,1,0,10.63,10.63A10.63,10.63,0,0,0,60.5,175Z"/><rect class="cls-1" x="192.91" y="185.05" width="35.37" height="1.98"/><circle class="cls-2" cx="148.02" cy="118.15" r="10.63"/><path class="cls-3" d="M148,109.52a8.63,8.63,0,1,1-8.63,8.63,8.64,8.64,0,0,1,8.63-8.63m0-2a10.63,10.63,0,1,0,10.63,10.63A10.63,10.63,0,0,0,148,107.52Z"/><rect class="cls-1" x="147.44" y="128.37" width="1.98" height="35.37"/><rect class="cls-1" x="70.72" y="185.05" width="35.37" height="1.98"/><circle class="cls-2" cx="148.01" cy="186.17" r="43.54"/><path class="cls-3" d="M148,145.46a40.71,40.71,0,1,1-40.71,40.71A40.76,40.76,0,0,1,148,145.46m0-2.83a43.54,43.54,0,1,0,43.54,43.54A43.54,43.54,0,0,0,148,142.63Z"/><path class="cls-1" d="M161.21,208.71H135.83a8,8,0,0,1-8-8v-17.8a8,8,0,0,1,8-8h25.38a8,8,0,0,1,8,8v17.8A8,8,0,0,1,161.21,208.71Zm-25.38-29.8a4,4,0,0,0-4,4v17.8a4,4,0,0,0,4,4h25.38a4,4,0,0,0,4-4v-17.8a4,4,0,0,0-4-4Z"/><path class="cls-1" d="M162,176.4h-4v-5.84a9.53,9.53,0,0,0-19.06,0v5.84h-4v-5.84a13.5,13.5,0,0,1,27,0Z"/><path class="cls-3" d="M146.92,200.7a2,2,0,0,1-1.4-.58l-7.68-7.68a2,2,0,0,1,2.81-2.81l6.27,6.27,13.71-13.72a2,2,0,1,1,2.81,2.81l-15.12,15.12A2,2,0,0,1,146.92,200.7Z"/><circle class="cls-4" cx="148.02" cy="112.75" r="14"/><path class="cls-2" d="M148,98.75a14,14,0,1,1-14,14,14,14,0,0,1,14-14m0-2.83a16.83,16.83,0,1,0,16.83,16.83A16.85,16.85,0,0,0,148,95.92Z"/><path class="cls-2" d="M142.35,105.61h11.35v1.47l-9.13,11.19h9.35v1.63H142.12v-1.47l9.13-11.19h-8.91v-1.63Zm0,0"/><circle class="cls-4" cx="240.02" cy="184.75" r="14"/><path class="cls-2" d="M240,170.75a14,14,0,1,1-14,14,14,14,0,0,1,14-14m0-2.83a16.83,16.83,0,1,0,16.83,16.83A16.85,16.85,0,0,0,240,167.92Z"/><path class="cls-2" d="M234.35,177.61h11.35v1.47l-9.13,11.19h9.35v1.63H234.12v-1.47l9.13-11.19h-8.91v-1.63Zm0,0"/><circle class="cls-4" cx="60.02" cy="184.75" r="14"/><path class="cls-2" d="M60,170.75a14,14,0,1,1-14,14,14,14,0,0,1,14-14m0-2.83a16.83,16.83,0,1,0,16.83,16.83A16.85,16.85,0,0,0,60,167.92Z"/><path class="cls-2" d="M54.35,177.61H65.69v1.47l-9.13,11.19h9.35v1.63H54.12v-1.47l9.13-11.19H54.35v-1.63Zm0,0"/></svg>